<svg class="diagram-root" style="background: #f5f6f6" xmlns="http://www.w3.org/2000/svg" xmlns:xlink="http://www.w3.org/1999/xlink"><style>.diagram-root { font-family: "Helvetica Neue", sans-serif; font-size: 12px; } .t { overflow: visible; } .t-bg { y: 40; fill: #fff;   } .th { fill: #005aa0;   } .tht { fill: #fff; font-size: 14px;  } .tf { fill: #323c46; overflow: visible; } .tf.pk { fill: #005aa0; font-weight: bold; } .tf.fk { font-weight: bold; } .ty { fill: #adb1b5; font-weight: normal; text-anchor: end; } .r { fill: transparent; stroke: #c3c3c3; stroke-width: 1; } .l { stroke: 1; } .i { fill: #c2c7ce; stroke: #c2c7ce; } .i.ix { fill: #afb3b6; stroke: #000; } .fa { fill: transparent; overflow: visible; } .fa .bg.hover { fill: #f7f7f7; } .c { cy: 12; r: 4; stroke: #d2d2dc; fill: #d2d2dc; } .hr { fill: transparent; stroke: #323c46; stroke-opacity: 0.035; stroke-width: 13; } .dc { stroke: #fa5a3c; fill: #fa5a3c; } .x { stroke: white; stroke-width: 1; } .hl .th { fill: #1b9bff; } .hl .tht {  } .fhl .bg { fill: #e7f4ff; } .fhls .bg {  } .r.hl { stroke: #1b9bff; } .dim { opacity: 0.25; }</style><g class="drawing-wrapper" transform="translate(158.3199999999999, 107.4999999999999) scale(1,1)"><g class="rs"><path d="M -128.33333333333331 227 m -1, 0 a 1,1 0 1,0 2,0 a 1,1 0 1,0 -2,0 M -128.33333333333331 227 m -0.5, 0 a 0.5,0.5 0 1,0 1,0 a 0.5,0.5 0 1,0 -1,0  M-128.33333333333331 227 L-128.33333333333331 227 -140.33333333333331 227 M -128.33333333333331 233 m -1, 0 a 1,1 0 1,0 2,0 a 1,1 0 1,0 -2,0 M -128.33333333333331 233 m -0.5, 0 a 0.5,0.5 0 1,0 1,0 a 0.5,0.5 0 1,0 -1,0  M-128.33333333333331 233 L-128.33333333333331 233 -135.33333333333331 227 -128.33333333333331 221 M -128.33333333333331 221 m -1, 0 a 1,1 0 1,0 2,0 a 1,1 0 1,0 -2,0 M -128.33333333333331 221 m -0.5, 0 a 0.5,0.5 0 1,0 1,0 a 0.5,0.5 0 1,0 -1,0  M-140.33333333333331 227 C -203.11199999999985 227, -198.3199999999999 377.1933333333332, -148.3199999999999 377.1933333333332 M -136.3199999999999 377.1933333333332 m -1, 0 a 1,1 0 1,0 2,0 a 1,1 0 1,0 -2,0 M -136.3199999999999 377.1933333333332 m -0.5, 0 a 0.5,0.5 0 1,0 1,0 a 0.5,0.5 0 1,0 -1,0  M-136.3199999999999 377.1933333333332 L-136.3199999999999 377.1933333333332 -148.3199999999999 377.1933333333332 M-142.3199999999999 383.1933333333332 L-142.3199999999999 383.1933333333332 -142.3199999999999 371.1933333333332" id="h1981091798" class="r"></path><path d="M 173.33333333333337 -20.4999999999999 m -1, 0 a 1,1 0 1,0 2,0 a 1,1 0 1,0 -2,0 M 173.33333333333337 -20.4999999999999 m -0.5, 0 a 0.5,0.5 0 1,0 1,0 a 0.5,0.5 0 1,0 -1,0  M173.33333333333337 -20.4999999999999 L173.33333333333337 -20.4999999999999 161.33333333333337 -20.4999999999999 M 173.33333333333337 -14.4999999999999 m -1, 0 a 1,1 0 1,0 2,0 a 1,1 0 1,0 -2,0 M 173.33333333333337 -14.4999999999999 m -0.5, 0 a 0.5,0.5 0 1,0 1,0 a 0.5,0.5 0 1,0 -1,0  M173.33333333333337 -14.4999999999999 L173.33333333333337 -14.4999999999999 166.33333333333337 -20.4999999999999 173.33333333333337 -26.4999999999999 M 173.33333333333337 -26.4999999999999 m -1, 0 a 1,1 0 1,0 2,0 a 1,1 0 1,0 -2,0 M 173.33333333333337 -26.4999999999999 m -0.5, 0 a 0.5,0.5 0 1,0 1,0 a 0.5,0.5 0 1,0 -1,0  M161.33333333333337 -20.4999999999999 Q 131.93 -20.4999999999999, 102.52 28.25 T 43.71 77 M 31.71 77 m -1, 0 a 1,1 0 1,0 2,0 a 1,1 0 1,0 -2,0 M 31.71 77 m -0.5, 0 a 0.5,0.5 0 1,0 1,0 a 0.5,0.5 0 1,0 -1,0  M31.71 77 L31.71 77 43.71 77 M37.71 83 L37.71 83 37.71 71" id="h933295453" class="r"></path><path d="M 271.36 4.5000000000000995 m -1, 0 a 1,1 0 1,0 2,0 a 1,1 0 1,0 -2,0 M 271.36 4.5000000000000995 m -0.5, 0 a 0.5,0.5 0 1,0 1,0 a 0.5,0.5 0 1,0 -1,0  M271.36 4.5000000000000995 L271.36 4.5000000000000995 283.36 4.5000000000000995 M 271.36 10.5000000000001 m -1, 0 a 1,1 0 1,0 2,0 a 1,1 0 1,0 -2,0 M 271.36 10.5000000000001 m -0.5, 0 a 0.5,0.5 0 1,0 1,0 a 0.5,0.5 0 1,0 -1,0  M271.36 10.5000000000001 L271.36 10.5000000000001 278.36 4.5000000000000995 271.36 -1.4999999999999005 M 271.36 -1.4999999999999005 m -1, 0 a 1,1 0 1,0 2,0 a 1,1 0 1,0 -2,0 M 271.36 -1.4999999999999005 m -0.5, 0 a 0.5,0.5 0 1,0 1,0 a 0.5,0.5 0 1,0 -1,0  M283.36 4.5000000000000995 Q 304.52 4.5000000000000995, 325.68 45.75 T 368 87 M 380 87 m -1, 0 a 1,1 0 1,0 2,0 a 1,1 0 1,0 -2,0 M 380 87 m -0.5, 0 a 0.5,0.5 0 1,0 1,0 a 0.5,0.5 0 1,0 -1,0  M380 87 L380 87 368 87 M374 93 L374 93 374 81" id="h2168725292" class="r"></path><path d="M 683.2566666666669 79.88333333333333 m -1, 0 a 1,1 0 1,0 2,0 a 1,1 0 1,0 -2,0 M 683.2566666666669 79.88333333333333 m -0.5, 0 a 0.5,0.5 0 1,0 1,0 a 0.5,0.5 0 1,0 -1,0  M683.2566666666669 79.88333333333333 L683.2566666666669 79.88333333333333 671.2566666666669 79.88333333333333 M 683.2566666666669 85.88333333333333 m -1, 0 a 1,1 0 1,0 2,0 a 1,1 0 1,0 -2,0 M 683.2566666666669 85.88333333333333 m -0.5, 0 a 0.5,0.5 0 1,0 1,0 a 0.5,0.5 0 1,0 -1,0  M683.2566666666669 85.88333333333333 L683.2566666666669 85.88333333333333 676.2566666666669 79.88333333333333 683.2566666666669 73.88333333333333 M 683.2566666666669 73.88333333333333 m -1, 0 a 1,1 0 1,0 2,0 a 1,1 0 1,0 -2,0 M 683.2566666666669 73.88333333333333 m -0.5, 0 a 0.5,0.5 0 1,0 1,0 a 0.5,0.5 0 1,0 -1,0  M671.2566666666669 79.88333333333333 Q 641.12 79.88333333333333, 610.98 83.44 T 550.7 87 M 538.7 87 m -1, 0 a 1,1 0 1,0 2,0 a 1,1 0 1,0 -2,0 M 538.7 87 m -0.5, 0 a 0.5,0.5 0 1,0 1,0 a 0.5,0.5 0 1,0 -1,0  M538.7 87 L538.7 87 550.7 87 M544.7 93 L544.7 93 544.7 81" id="h2818756797" class="r"></path><path d="M 683.2566666666669 104.88333333333333 m -1, 0 a 1,1 0 1,0 2,0 a 1,1 0 1,0 -2,0 M 683.2566666666669 104.88333333333333 m -0.5, 0 a 0.5,0.5 0 1,0 1,0 a 0.5,0.5 0 1,0 -1,0  M683.2566666666669 104.88333333333333 L683.2566666666669 104.88333333333333 671.2566666666669 104.88333333333333 M 683.2566666666669 110.88333333333333 m -1, 0 a 1,1 0 1,0 2,0 a 1,1 0 1,0 -2,0 M 683.2566666666669 110.88333333333333 m -0.5, 0 a 0.5,0.5 0 1,0 1,0 a 0.5,0.5 0 1,0 -1,0  M683.2566666666669 110.88333333333333 L683.2566666666669 110.88333333333333 676.2566666666669 104.88333333333333 683.2566666666669 98.88333333333333 M 683.2566666666669 98.88333333333333 m -1, 0 a 1,1 0 1,0 2,0 a 1,1 0 1,0 -2,0 M 683.2566666666669 98.88333333333333 m -0.5, 0 a 0.5,0.5 0 1,0 1,0 a 0.5,0.5 0 1,0 -1,0  M671.2566666666669 104.88333333333333 Q 641.12 104.88333333333333, 610.98 95.94 T 550.7 87 M 538.7 87 m -1, 0 a 1,1 0 1,0 2,0 a 1,1 0 1,0 -2,0 M 538.7 87 m -0.5, 0 a 0.5,0.5 0 1,0 1,0 a 0.5,0.5 0 1,0 -1,0  M538.7 87 L538.7 87 550.7 87 M544.7 93 L544.7 93 544.7 81" id="h1463568185" class="r"></path><path d="M 172.7433333333332 179.69333333333296 m -1, 0 a 1,1 0 1,0 2,0 a 1,1 0 1,0 -2,0 M 172.7433333333332 179.69333333333296 m -0.5, 0 a 0.5,0.5 0 1,0 1,0 a 0.5,0.5 0 1,0 -1,0  M172.7433333333332 179.69333333333296 L172.7433333333332 179.69333333333296 160.7433333333332 179.69333333333296 M 172.7433333333332 185.69333333333296 m -1, 0 a 1,1 0 1,0 2,0 a 1,1 0 1,0 -2,0 M 172.7433333333332 185.69333333333296 m -0.5, 0 a 0.5,0.5 0 1,0 1,0 a 0.5,0.5 0 1,0 -1,0  M172.7433333333332 185.69333333333296 L172.7433333333332 185.69333333333296 165.7433333333332 179.69333333333296 172.7433333333332 173.69333333333296 M 172.7433333333332 173.69333333333296 m -1, 0 a 1,1 0 1,0 2,0 a 1,1 0 1,0 -2,0 M 172.7433333333332 173.69333333333296 m -0.5, 0 a 0.5,0.5 0 1,0 1,0 a 0.5,0.5 0 1,0 -1,0  M160.7433333333332 179.69333333333296 Q 131.49 179.69333333333296, 102.23 128.35 T 43.71 77 M 31.71 77 m -1, 0 a 1,1 0 1,0 2,0 a 1,1 0 1,0 -2,0 M 31.71 77 m -0.5, 0 a 0.5,0.5 0 1,0 1,0 a 0.5,0.5 0 1,0 -1,0  M31.71 77 L31.71 77 43.71 77 M37.71 83 L37.71 83 37.71 71" id="h2393061165" class="r"></path><path d="M 172.7433333333332 204.69333333333296 m -1, 0 a 1,1 0 1,0 2,0 a 1,1 0 1,0 -2,0 M 172.7433333333332 204.69333333333296 m -0.5, 0 a 0.5,0.5 0 1,0 1,0 a 0.5,0.5 0 1,0 -1,0  M172.7433333333332 204.69333333333296 L172.7433333333332 204.69333333333296 160.7433333333332 204.69333333333296 M 172.7433333333332 210.69333333333296 m -1, 0 a 1,1 0 1,0 2,0 a 1,1 0 1,0 -2,0 M 172.7433333333332 210.69333333333296 m -0.5, 0 a 0.5,0.5 0 1,0 1,0 a 0.5,0.5 0 1,0 -1,0  M172.7433333333332 210.69333333333296 L172.7433333333332 210.69333333333296 165.7433333333332 204.69333333333296 172.7433333333332 198.69333333333296 M 172.7433333333332 198.69333333333296 m -1, 0 a 1,1 0 1,0 2,0 a 1,1 0 1,0 -2,0 M 172.7433333333332 198.69333333333296 m -0.5, 0 a 0.5,0.5 0 1,0 1,0 a 0.5,0.5 0 1,0 -1,0  M160.7433333333332 204.69333333333296 C 110.85010617724106 204.69333333333296, 110.28010617724112 354.37000000000046, 161.6933333333331 354.37000000000046 M 173.6933333333331 354.37000000000046 m -1, 0 a 1,1 0 1,0 2,0 a 1,1 0 1,0 -2,0 M 173.6933333333331 354.37000000000046 m -0.5, 0 a 0.5,0.5 0 1,0 1,0 a 0.5,0.5 0 1,0 -1,0  M173.6933333333331 354.37000000000046 L173.6933333333331 354.37000000000046 161.6933333333331 354.37000000000046 M167.6933333333331 360.37000000000046 L167.6933333333331 360.37000000000046 167.6933333333331 348.37000000000046" id="h515368828" class="r"></path></g><g class="hrs"></g><g class="ts"><svg width="158.7" height="175" x="380" y="30" id="h2728321744" class="t"><rect height="40" width="158.7" class="th"></rect><text x="13" y="25" class="tht">user</text><rect height="135" width="158.7" class="t-bg" y="40"></rect><text x="13" y="61" class="tf pk">user_id<tspan x="145.7" class="ty">int</tspan></text><path d="M7,14A2,2 0 0,1 5,12A2,2 0 0,1 7,10A2,2 0 0,1 9,12A2,2 0 0,1 7,14M12.65,10C11.83,7.67 9.61,6 7, 6A6, 6 0 0, 0 1, 12A6, 6 0 0, 0 7, 18C9.61, 18 11.83, 16.33 12.65, 14H17V18H21V14H23V10H12.65Z" class="i pk" transform="translate(113.02617187499999, 48) scale(0.65)"></path><text x="13" y="86" class="tf">email<tspan x="145.7" class="ty">varchar(200)</tspan></text><path d="M22,18V22H18V19H15V16H12L9.74,13.74C9.19,13.91 8.61,14 8,14A6,6 0 0,1 2,8A6,6 0 0,1 8,2A6,6 0 0,1 14,8C14,8.61 13.91, 9.19 13.74, 9.74L22, 18M7, 5A2, 2 0 0, 0 5, 7A2, 2 0 0, 0 7, 9A2, 2 0 0, 0 9, 7A2, 2 0 0, 0 7, 5Z" class="i uq" transform="translate(61.67265624999999, 75.5) scale(0.5)"></path><text x="13" y="111" class="tf">login<tspan x="145.7" class="ty">varchar(200)</tspan></text><path d="M22,18V22H18V19H15V16H12L9.74,13.74C9.19,13.91 8.61,14 8,14A6,6 0 0,1 2,8A6,6 0 0,1 8,2A6,6 0 0,1 14,8C14,8.61 13.91, 9.19 13.74, 9.74L22, 18M7, 5A2, 2 0 0, 0 5, 7A2, 2 0 0, 0 7, 9A2, 2 0 0, 0 9, 7A2, 2 0 0, 0 7, 5Z" class="i uq" transform="translate(61.67265624999999, 100.5) scale(0.5)"></path><text x="13" y="136" class="tf">name<tspan x="145.7" class="ty">varchar(200)</tspan></text><text x="13" y="161" class="tf">birthday<tspan x="145.7" class="ty">date</tspan></text></svg><svg width="160.04" height="225" x="-128.33333333333331" y="20.000000000000004" id="h4200617828" class="t"><rect height="40" width="160.04" class="th"></rect><text x="13" y="25" class="tht">film</text><rect height="185" width="160.04" class="t-bg" y="40"></rect><text x="13" y="61" class="tf pk">film_id<tspan x="147.04" class="ty">int</tspan></text><path d="M7,14A2,2 0 0,1 5,12A2,2 0 0,1 7,10A2,2 0 0,1 9,12A2,2 0 0,1 7,14M12.65,10C11.83,7.67 9.61,6 7, 6A6, 6 0 0, 0 1, 12A6, 6 0 0, 0 7, 18C9.61, 18 11.83, 16.33 12.65, 14H17V18H21V14H23V10H12.65Z" class="i pk" transform="translate(114.36617187499999, 48) scale(0.65)"></path><text x="13" y="86" class="tf">name<tspan x="147.04" class="ty">varchar(200)</tspan></text><path d="M22,18V22H18V19H15V16H12L9.74,13.74C9.19,13.91 8.61,14 8,14A6,6 0 0,1 2,8A6,6 0 0,1 8,2A6,6 0 0,1 14,8C14,8.61 13.91, 9.19 13.74, 9.74L22, 18M7, 5A2, 2 0 0, 0 5, 7A2, 2 0 0, 0 7, 9A2, 2 0 0, 0 9, 7A2, 2 0 0, 0 7, 5Z" class="i uq" transform="translate(63.01265624999999, 75.5) scale(0.5)"></path><text x="13" y="111" class="tf">description<tspan x="147.04" class="ty">text</tspan></text><text x="13" y="136" class="tf">release_date<tspan x="147.04" class="ty">date</tspan></text><text x="13" y="161" class="tf">duration_minutes<tspan x="147.04" class="ty">int</tspan></text><text x="13" y="186" class="tf">genre_id<tspan x="147.04" class="ty">int</tspan></text><text x="13" y="211" class="tf fk">rating_id<tspan x="147.04" class="ty">int</tspan></text></svg><svg width="98.03" height="100" x="173.33333333333337" y="-77.4999999999999" id="h1776118718" class="t"><rect height="40" width="98.03" class="th"></rect><text x="13" y="25" class="tht">film_like</text><rect height="60" width="98.03" class="t-bg" y="40"></rect><text x="13" y="61" class="tf fk">film_id<tspan x="85.03" class="ty">int</tspan></text><text x="13" y="86" class="tf fk">user_id<tspan x="85.03" class="ty">int</tspan></text></svg><svg width="144.75" height="125" x="683.2566666666669" y="22.88333333333333" id="h260524376" class="t"><rect height="40" width="144.75" class="th"></rect><text x="13" y="25" class="tht">user_friend</text><rect height="85" width="144.75" class="t-bg" y="40"></rect><text x="13" y="61" class="tf fk">user_id<tspan x="131.75" class="ty">int</tspan></text><text x="13" y="86" class="tf fk">added_friend_id<tspan x="131.75" class="ty">int</tspan></text><text x="13" y="111" class="tf">confirmed<tspan x="131.75" class="ty">boolean</tspan></text></svg><svg width="105.38" height="100" x="172.7433333333332" y="122.69333333333296" id="h1016190631" class="t"><rect height="40" width="105.38" class="th"></rect><text x="13" y="25" class="tht">film_genre</text><rect height="60" width="105.38" class="t-bg" y="40"></rect><text x="13" y="61" class="tf fk">film_id<tspan x="92.38" class="ty">int</tspan></text><text x="13" y="86" class="tf fk">genre_id<tspan x="92.38" class="ty">int</tspan></text></svg><svg width="125.38" height="100" x="173.6933333333331" y="297.37000000000046" id="h1304626560" class="t"><rect height="40" width="125.38" class="th"></rect><text x="13" y="25" class="tht">genre</text><rect height="60" width="125.38" class="t-bg" y="40"></rect><text x="13" y="61" class="tf pk">genre_id<tspan x="112.38" class="ty">int</tspan></text><path d="M7,14A2,2 0 0,1 5,12A2,2 0 0,1 7,10A2,2 0 0,1 9,12A2,2 0 0,1 7,14M12.65,10C11.83,7.67 9.61,6 7, 6A6, 6 0 0, 0 1, 12A6, 6 0 0, 0 7, 18C9.61, 18 11.83, 16.33 12.65, 14H17V18H21V14H23V10H12.65Z" class="i pk" transform="translate(79.706171875, 48) scale(0.65)"></path><text x="13" y="86" class="tf">name<tspan x="112.38" class="ty">int</tspan></text></svg><svg width="144.04" height="100" x="-136.3199999999999" y="320.1933333333332" id="h2037942479" class="t"><rect height="40" width="144.04" class="th"></rect><text x="13" y="25" class="tht">rating</text><rect height="60" width="144.04" class="t-bg" y="40"></rect><text x="13" y="61" class="tf pk">rating_id<tspan x="131.04" class="ty">int</tspan></text><path d="M7,14A2,2 0 0,1 5,12A2,2 0 0,1 7,10A2,2 0 0,1 9,12A2,2 0 0,1 7,14M12.65,10C11.83,7.67 9.61,6 7, 6A6, 6 0 0, 0 1, 12A6, 6 0 0, 0 7, 18C9.61, 18 11.83, 16.33 12.65, 14H17V18H21V14H23V10H12.65Z" class="i pk" transform="translate(98.36617187499999, 48) scale(0.65)"></path><text x="13" y="86" class="tf">name<tspan x="131.04" class="ty">varchar(200)</tspan></text></svg></g></g><text class="qdbd-link" x="10" y="20">www.quickdatabasediagrams.com</text></svg>